<svg width="193" height="190" viewBox="0 0 193 190" fill="none" xmlns="http://www.w3.org/2000/svg">
<path d="M170.571 23.8593C170.069 23.8593 169.629 23.672 169.315 23.2347C168.812 22.5477 168.938 21.5484 169.629 21.0487L176.854 15.6772C177.545 15.1775 178.55 15.3025 179.053 15.9895C179.555 16.6766 179.43 17.6759 178.739 18.1756L171.514 23.547C171.2 23.7344 170.885 23.8593 170.571 23.8593Z" fill="#00FEFD"/>
<path d="M177.796 62.2091C177.608 62.2091 177.482 62.2091 177.294 62.1466L168.749 59.2735C167.933 59.0237 167.493 58.0868 167.744 57.2748C167.995 56.4628 168.938 56.0256 169.755 56.2755L178.299 59.1486C179.116 59.3984 179.555 60.3353 179.304 61.1473C179.053 61.7718 178.424 62.2091 177.796 62.2091Z" fill="#00FEFD"/>
<path d="M137.337 17.6134C136.52 17.6134 135.829 16.9889 135.766 16.1144L135.326 7.18281C135.263 6.30838 135.954 5.55888 136.834 5.55888C137.713 5.49642 138.467 6.18347 138.467 7.05789L138.907 15.9895C138.97 16.8639 138.279 17.6134 137.399 17.6134C137.399 17.6134 137.399 17.6134 137.337 17.6134Z" fill="#00FEFD"/>
<path d="M108.743 1.57894L4.51575 1.91931L4.90867 120.841L109.136 120.501L108.743 1.57894Z" fill="#001447"/>
<path d="M4.90035 122.419C4.02079 122.419 3.32971 121.732 3.32971 120.858L2.95276 1.93623C2.95276 1.49901 3.14124 1.12426 3.39254 0.811966C3.70667 0.499671 4.08362 0.374753 4.5234 0.374753L108.751 0C109.63 0 110.322 0.687048 110.322 1.56147L110.699 120.483C110.699 120.92 110.51 121.295 110.259 121.607C109.945 121.92 109.568 122.045 109.128 122.045L4.90035 122.419ZM6.09403 3.43524L6.47099 119.297L107.557 118.984L107.18 3.12295L6.09403 3.43524Z" fill="#001447"/>
<path d="M127.151 21.566L22.9237 21.9064L23.3166 140.828L127.544 140.488L127.151 21.566Z" fill="#00FEFD"/>
<path d="M23.3083 142.656C22.3031 142.656 21.4863 141.844 21.4863 140.845L21.1094 21.9231C21.1094 21.4234 21.2979 20.9862 21.612 20.6115C21.9261 20.2992 22.4287 20.0494 22.8685 20.0494L127.096 19.7371C128.101 19.7371 128.918 20.549 128.918 21.5484L129.295 140.47C129.295 140.97 129.106 141.407 128.792 141.782C128.478 142.094 127.976 142.344 127.536 142.344L23.3083 142.656ZM24.7533 23.672L25.1302 139.034L125.714 138.721L125.337 23.4221L24.7533 23.672Z" fill="#00FEFD"/>
<path d="M43.1612 89.5037L43.0355 38.8495L147.263 38.5372L147.64 157.459L43.4125 157.834L43.1612 89.5037Z" fill="#F5F8FA"/>
<path d="M43.4124 159.395C42.9727 159.395 42.5957 159.208 42.2816 158.958C41.9674 158.646 41.8418 158.271 41.8418 157.834L41.4648 38.8495C41.4648 38.4123 41.6533 38.0375 41.9046 37.7252C42.2187 37.4129 42.5957 37.288 43.0355 37.288L147.263 36.9757C148.143 36.9757 148.834 37.6628 148.834 38.5372L149.211 157.459C149.211 158.333 148.52 159.02 147.64 159.02L43.4124 159.395ZM44.6061 40.4109L44.9831 156.21L146.069 155.897L145.692 40.0987L44.6061 40.4109Z" fill="#001447"/>
<path d="M181.126 160.832H160.079C154.865 160.832 149.713 161.893 144.938 163.955L142.928 164.829C139.473 166.328 135.766 167.078 132.059 167.078H120.625L181.126 160.832Z" fill="#F5F8FA"/>
<path d="M132.059 168.577H120.625C119.745 168.577 119.054 167.89 119.054 167.015C119.054 166.141 119.745 165.454 120.625 165.454H132.059C135.577 165.454 139.033 164.767 142.3 163.33L144.31 162.456C149.336 160.332 154.614 159.208 160.079 159.208H181.126C182.005 159.208 182.697 159.895 182.697 160.769C182.697 161.644 182.005 162.331 181.126 162.331H160.079C155.053 162.331 150.153 163.33 145.504 165.329L143.493 166.203C139.912 167.765 136.017 168.577 132.059 168.577Z" fill="#242B42"/>
<path d="M181.126 118.672L166.676 118.484C161.901 118.422 157.566 115.549 155.744 111.177L154.551 108.366C150.467 103.12 144.185 100.059 137.588 99.9966L115.85 99.8093C111.955 99.7468 108.123 101.058 105.107 103.494L93.4216 112.738C89.8405 115.549 89.7777 120.92 93.2959 123.856C95.8718 125.98 99.6413 126.104 102.28 124.106L113.212 115.861L117.735 115.986L120.688 166.953H132.122C135.892 166.953 139.598 166.203 142.991 164.704L145.001 163.83C149.776 161.768 154.928 160.707 160.142 160.707H181.189V118.672H181.126Z" fill="#F5F8FA"/>
<path d="M132.059 168.577H120.625C119.808 168.577 119.117 167.952 119.054 167.078L116.227 117.548L113.651 117.485L103.16 125.355C99.8926 127.853 95.3691 127.728 92.2279 125.105C90.2175 123.419 89.0238 120.92 89.0866 118.297C89.1494 115.674 90.3431 113.238 92.4163 111.552L104.102 102.308C107.369 99.6844 111.515 98.3103 115.662 98.3103C115.725 98.3103 115.787 98.3103 115.85 98.3103L137.588 98.4977C144.75 98.5601 151.409 101.808 155.807 107.492C155.87 107.617 155.933 107.742 155.996 107.867L157.189 110.677C158.823 114.487 162.53 116.986 166.739 117.048L181.189 117.235C182.068 117.235 182.759 117.922 182.759 118.797C182.759 119.671 182.068 120.358 181.189 120.358L166.676 120.171C161.273 120.108 156.436 116.861 154.299 111.926L153.169 109.303C149.336 104.494 143.682 101.746 137.525 101.683L115.787 101.496C115.725 101.496 115.725 101.496 115.662 101.496C112.206 101.496 108.751 102.682 106.049 104.868L94.3639 114.112C93.0446 115.174 92.2279 116.736 92.2279 118.422C92.2279 120.108 92.9189 121.732 94.2383 122.794C96.2487 124.481 99.1387 124.543 101.275 122.982L112.206 114.737C112.521 114.55 112.835 114.425 113.212 114.425L117.735 114.55C118.552 114.55 119.18 115.237 119.243 116.049L122.07 165.516H131.996C135.515 165.516 138.97 164.829 142.237 163.392L144.247 162.518C149.273 160.394 154.551 159.27 160.017 159.27H181.063C181.943 159.27 182.634 159.957 182.634 160.832C182.634 161.706 181.943 162.393 181.063 162.393H160.017C154.991 162.393 150.09 163.392 145.441 165.391L143.431 166.266C139.912 167.765 136.017 168.577 132.059 168.577Z" fill="#242B42"/>
<path d="M21.9261 118.422H30.4076C34.3027 118.422 38.0094 116.548 40.2712 113.363C44.292 107.742 50.8258 104.431 57.7367 104.431H84.249C85.0658 104.431 85.8825 104.494 86.6992 104.556C91.7253 105.118 109.756 107.492 117.17 114.112L150.027 141.095C151.41 142.344 152.289 144.03 152.54 145.779C152.854 147.965 152.226 150.214 150.656 151.962C147.828 155.085 142.928 155.398 139.787 152.525L141.734 154.273C144.876 157.084 145.19 161.956 142.3 165.079C141.043 166.453 139.347 167.327 137.588 167.577C135.389 167.89 133.127 167.265 131.368 165.703L129.421 163.955C132.562 166.765 132.813 171.637 129.986 174.76C128.729 176.134 127.033 177.009 125.274 177.258C123.075 177.571 120.813 176.946 119.054 175.385L116.981 173.573C118.363 174.822 119.18 176.509 119.431 178.195C119.745 180.381 119.117 182.63 117.547 184.379C114.719 187.502 109.819 187.814 106.678 184.941L78.7204 160.769L56.6058 164.017H21.8633V118.422H21.9261Z" fill="#F5F8FA"/>
<path d="M111.829 188.376C109.505 188.376 107.369 187.564 105.61 186.003L78.2177 162.331L56.8571 165.454C56.7942 165.454 56.6686 165.454 56.6058 165.454H21.8632C20.9837 165.454 20.2926 164.767 20.2926 163.892C20.2926 163.018 20.9837 162.331 21.8632 162.331H56.5429L78.5319 159.145C78.9716 159.083 79.4742 159.208 79.7884 159.52L107.746 183.692C109.002 184.816 110.573 185.378 112.206 185.253C113.84 185.191 115.348 184.441 116.416 183.254C117.609 181.943 118.175 180.131 117.923 178.32C117.735 176.884 117.044 175.572 115.976 174.635C115.348 174.073 115.285 173.074 115.85 172.449C116.416 171.824 117.421 171.762 118.049 172.324L120.122 174.135C121.442 175.322 123.264 175.884 125.086 175.634C126.531 175.447 127.85 174.76 128.792 173.698C131.054 171.2 130.866 167.327 128.352 165.079C127.724 164.517 127.661 163.517 128.227 162.893C128.792 162.268 129.797 162.206 130.426 162.768L132.373 164.517C133.693 165.703 135.515 166.266 137.337 166.016C138.782 165.828 140.101 165.141 141.043 164.079C142.111 162.893 142.677 161.331 142.614 159.645C142.551 158.021 141.797 156.522 140.603 155.398L138.656 153.649C138.028 153.087 137.965 152.087 138.53 151.463C139.096 150.838 140.101 150.776 140.729 151.338C141.986 152.462 143.556 152.962 145.19 152.899C146.823 152.837 148.331 152.087 149.462 150.901C150.656 149.589 151.221 147.778 150.97 145.966C150.781 144.53 150.09 143.218 149.022 142.281L116.164 115.362C116.164 115.362 116.102 115.362 116.102 115.299C110.51 110.302 97.191 107.304 86.5107 106.118C85.7568 106.055 85.0029 105.993 84.1862 105.993H57.7366C51.3284 105.993 45.2343 109.116 41.5276 114.3C38.9518 117.86 34.8053 119.983 30.3447 119.983H21.8632C20.9837 119.983 20.2926 119.296 20.2926 118.422C20.2926 117.548 20.9837 116.861 21.8632 116.861H30.3447C33.7373 116.861 36.9414 115.237 38.9518 112.488C43.2867 106.492 50.2604 102.87 57.7366 102.87H84.249C85.1285 102.87 86.0709 102.932 86.8876 102.995C92.2906 103.619 110.447 106.055 118.175 112.926L151.033 139.845C151.033 139.845 151.095 139.845 151.095 139.908C152.729 141.344 153.797 143.343 154.111 145.529C154.488 148.215 153.671 150.963 151.786 152.962C150.153 154.773 147.828 155.897 145.378 156.022C145.253 156.022 145.064 156.022 144.938 156.022C145.441 157.084 145.755 158.271 145.818 159.458C145.944 161.893 145.127 164.267 143.431 166.141C141.986 167.765 139.975 168.826 137.776 169.139C136.331 169.326 134.824 169.201 133.441 168.701C133.693 171.2 132.939 173.823 131.117 175.822C129.672 177.446 127.661 178.507 125.463 178.82C123.955 179.007 122.447 178.882 121.065 178.383C121.316 180.943 120.436 183.504 118.74 185.44C117.107 187.252 114.782 188.376 112.332 188.501C112.206 188.314 112.018 188.376 111.829 188.376Z" fill="#001447"/>
<path d="M133.944 116.049L113.149 115.924L102.217 124.168C99.5156 126.167 95.8089 126.104 93.233 123.918C89.7148 120.983 89.7777 115.611 93.3587 112.801L105.044 103.557C108.123 101.121 111.892 99.8093 115.787 99.8718L137.525 100.059C144.185 100.122 150.467 103.182 154.488 108.429L155.682 111.239C157.566 115.611 161.839 118.485 166.613 118.547L181.063 118.734L133.944 116.049Z" fill="#F5F8FA"/>
<path d="M97.8822 127.166C95.8717 127.166 93.8613 126.479 92.2279 125.105C90.2175 123.419 89.0238 120.92 89.0866 118.297C89.1494 115.674 90.3431 113.238 92.4163 111.552L104.102 102.308C107.369 99.6844 111.515 98.3103 115.662 98.3103C115.725 98.3103 115.787 98.3103 115.85 98.3103L137.588 98.4977C144.75 98.5601 151.409 101.808 155.807 107.492C155.87 107.617 155.933 107.742 155.996 107.867L157.189 110.677C158.823 114.487 162.53 116.986 166.739 117.048L181.189 117.235C182.068 117.235 182.759 117.922 182.759 118.797C182.759 119.671 182.068 120.358 181.189 120.358L166.676 120.171C161.273 120.108 156.436 116.861 154.299 111.926L153.169 109.303C149.336 104.494 143.682 101.746 137.525 101.683L115.787 101.496C115.725 101.496 115.725 101.496 115.662 101.496C112.206 101.496 108.751 102.682 106.049 104.868L94.3639 114.112C93.0446 115.174 92.2279 116.736 92.2279 118.422C92.2279 120.108 92.9189 121.732 94.2383 122.794C96.2487 124.481 99.1387 124.543 101.275 122.982L112.206 114.737C112.458 114.55 112.772 114.425 113.149 114.425L133.944 114.55C134.824 114.55 135.515 115.237 135.515 116.111C135.515 116.986 134.824 117.673 133.944 117.673L113.714 117.548L103.222 125.48C101.589 126.542 99.7041 127.166 97.8822 127.166Z" fill="#001447"/>
<path d="M51.2656 153.836C48.25 150.776 48.3128 145.842 51.3284 142.844L55.0979 139.158C58.1764 136.16 63.1396 136.223 66.1552 139.221C69.1709 142.281 69.108 147.216 66.0924 150.214L62.3229 153.899C59.2444 156.959 54.2812 156.897 51.2656 153.836Z" fill="#F5F8FA"/>
<path d="M56.7943 157.709H56.7315C54.2184 157.709 51.8939 156.709 50.1348 154.898C46.4909 151.213 46.5537 145.342 50.2604 141.719L54.03 138.034C55.7891 136.285 58.1136 135.348 60.6266 135.348H60.6895C63.2025 135.348 65.527 136.348 67.2861 138.159C69.0452 139.908 69.9876 142.281 69.9876 144.78C69.9876 147.278 68.9824 149.589 67.1605 151.338L63.391 155.023C61.6318 156.772 59.3073 157.709 56.7943 157.709ZM60.6266 138.471C58.9932 138.471 57.4225 139.096 56.2288 140.22L52.4593 143.905C51.2656 145.092 50.6374 146.591 50.5745 148.277C50.5745 149.964 51.2028 151.525 52.3337 152.65C53.5273 153.836 55.0352 154.461 56.7315 154.523H56.7943C58.4277 154.523 59.9984 153.899 61.1921 152.774L64.9616 149.089C66.1553 147.903 66.7835 146.404 66.8464 144.717C66.8464 143.031 66.2181 141.469 65.0872 140.345C63.8936 139.158 62.3229 138.534 60.6266 138.471Z" fill="#001447"/>
<path d="M62.3858 164.579C59.3702 161.519 59.433 156.585 62.4486 153.587L66.2182 149.901C69.2966 146.903 74.2598 146.966 77.2755 149.964C80.2911 153.024 80.2283 157.959 77.2126 160.957L73.4431 164.642C70.3647 167.702 65.4643 167.64 62.3858 164.579Z" fill="#F5F8FA"/>
<path d="M67.9773 168.452H67.9144C65.4014 168.452 63.0769 167.452 61.3178 165.641C57.6739 161.956 57.7367 156.085 61.4434 152.462L65.2129 148.777C66.972 147.028 69.2966 146.091 71.8096 146.091H71.8724C74.3855 146.091 76.71 147.091 78.4691 148.902C82.113 152.587 82.0502 158.458 78.3435 162.081L74.5739 165.766C72.8148 167.515 70.4274 168.452 67.9773 168.452ZM71.7468 149.277C70.1133 149.277 68.5427 149.901 67.349 151.026L63.5795 154.711C62.3858 155.897 61.7575 157.396 61.6947 159.083C61.6947 160.769 62.323 162.331 63.4538 163.455C64.6475 164.642 66.1553 165.266 67.8516 165.329H67.9144C69.5479 165.329 71.1185 164.704 72.3122 163.58L76.0817 159.895C77.2754 158.708 77.9037 157.209 77.9665 155.523C77.9665 153.836 77.3383 152.275 76.2074 151.151C75.0137 149.901 73.5059 149.277 71.7468 149.277C71.8096 149.277 71.8096 149.277 71.7468 149.277Z" fill="#001447"/>
<path d="M73.5687 175.385C70.5531 172.324 70.6159 167.39 73.6315 164.392L77.401 160.707C80.4795 157.709 85.4427 157.771 88.4583 160.769C91.474 163.83 91.4111 168.764 88.3955 171.762L84.626 175.447C81.5475 178.445 76.5843 178.383 73.5687 175.385Z" fill="#F5F8FA"/>
<path d="M79.1602 179.257H79.0974C76.5844 179.257 74.2598 178.258 72.5007 176.446C70.7416 174.698 69.7992 172.324 69.7992 169.826C69.7992 167.327 70.8044 165.016 72.6263 163.268L76.3959 159.582C78.155 157.834 80.4795 156.897 82.9926 156.897H83.0554C85.5684 156.897 87.8929 157.896 89.6521 159.707C93.2959 163.392 93.2331 169.264 89.5264 172.886L85.7569 176.571C83.9349 178.32 81.6104 179.257 79.1602 179.257ZM82.9297 160.02C81.2963 160.02 79.7256 160.644 78.5319 161.769L74.7624 165.454C73.5687 166.64 72.9405 168.139 72.8776 169.826C72.8776 171.512 73.5059 173.074 74.6368 174.198C75.8304 175.385 77.3383 176.009 79.0345 176.072C80.7308 176.072 82.3015 175.447 83.4323 174.323L87.2019 170.638C88.3955 169.451 89.0238 167.952 89.0866 166.266C89.0866 164.579 88.4584 163.018 87.3275 161.893C86.1967 160.707 84.626 160.02 82.9297 160.02C82.9926 160.02 82.9297 160.02 82.9297 160.02Z" fill="#001447"/>
<path d="M84.7517 186.128C81.736 183.067 81.7989 178.133 84.8145 175.135L88.584 171.45C91.6625 168.452 96.6257 168.514 99.6413 171.512C102.657 174.573 102.594 179.507 99.5785 182.505L95.809 186.19C92.7305 189.188 87.7673 189.188 84.7517 186.128Z" fill="#F5F8FA"/>
<path d="M90.2803 190H90.2175C87.7045 190 85.3799 189.001 83.6208 187.189C81.8617 185.44 80.9193 183.067 80.9193 180.569C80.9193 178.07 81.9245 175.759 83.7465 174.01L87.516 170.325C89.2751 168.577 91.6625 167.64 94.1755 167.64C96.6885 167.64 99.0131 168.639 100.772 170.45C104.416 174.135 104.353 180.007 100.647 183.629L96.877 187.314C95.1179 189.063 92.7933 190 90.2803 190ZM94.1127 170.763C92.4792 170.763 90.9086 171.387 89.7149 172.511L85.9454 176.197C84.7517 177.383 84.1234 178.882 84.0606 180.569C84.0606 182.255 84.6888 183.817 85.8197 184.941C87.0134 186.127 88.5212 186.752 90.2175 186.815H90.2803C91.9138 186.815 93.4844 186.19 94.6781 185.066L98.4476 181.381C100.898 179.007 100.961 175.072 98.5105 172.636C97.3796 171.45 95.809 170.763 94.1127 170.763Z" fill="#001447"/>
<path d="M139.724 152.462L118.677 134.974L139.724 152.462Z" fill="#F5F8FA"/>
<path d="M139.724 154.024C139.347 154.024 139.033 153.899 138.719 153.649L117.672 136.16C116.981 135.598 116.918 134.599 117.484 133.974C118.049 133.287 119.054 133.225 119.683 133.787L140.729 151.275C141.42 151.838 141.483 152.837 140.918 153.461C140.604 153.836 140.164 154.024 139.724 154.024Z" fill="#001447"/>
<path d="M129.421 163.892L111.704 148.84L129.421 163.892Z" fill="#F5F8FA"/>
<path d="M129.421 165.454C129.044 165.454 128.667 165.329 128.415 165.079L110.698 150.026C110.07 149.464 109.945 148.465 110.51 147.84C111.075 147.216 112.081 147.091 112.709 147.653L130.426 162.705C131.054 163.268 131.18 164.267 130.614 164.891C130.3 165.266 129.86 165.454 129.421 165.454Z" fill="#001447"/>
<path d="M117.044 173.448L95.9973 155.96L117.044 173.448Z" fill="#F5F8FA"/>
<path d="M117.044 175.01C116.667 175.01 116.353 174.885 116.039 174.635L94.9921 157.147C94.3011 156.584 94.2382 155.585 94.8037 154.96C95.3691 154.273 96.3743 154.211 97.0026 154.773L118.049 172.262C118.74 172.824 118.803 173.823 118.238 174.448C117.923 174.822 117.484 175.01 117.044 175.01Z" fill="#001447"/>
<path d="M21.9261 112.676H1.8219V169.139H21.9261V112.676Z" fill="#00FEFD"/>
<path d="M21.9261 170.95H1.82194C0.816732 170.95 0 170.138 0 169.139V112.676C0 111.676 0.816732 110.865 1.82194 110.865H21.9261C22.9313 110.865 23.748 111.676 23.748 112.676V169.139C23.748 170.138 22.9313 170.95 21.9261 170.95ZM3.64388 167.327H20.1042V114.487H3.64388V167.327Z" fill="#00FEFD"/>
<path d="M191.178 112.676H171.074V169.139H191.178V112.676Z" fill="#00FEFD"/>
<path d="M191.178 170.95H171.074C170.069 170.95 169.252 170.138 169.252 169.139V112.676C169.252 111.676 170.069 110.865 171.074 110.865H191.178C192.183 110.865 193 111.676 193 112.676V169.139C193 170.138 192.183 170.95 191.178 170.95ZM172.896 167.327H189.356V114.487H172.896V167.327Z" fill="#00FEFD"/>
<path d="M132.499 56.2754H58.679C57.7995 56.2754 57.1084 55.5884 57.1084 54.7139C57.1084 53.8395 57.7995 53.1525 58.679 53.1525H132.436C133.316 53.1525 134.007 53.8395 134.007 54.7139C134.07 55.5884 133.316 56.2754 132.499 56.2754Z" fill="#001447"/>
<path d="M132.499 70.4536H58.679C57.7995 70.4536 57.1084 69.7666 57.1084 68.8922C57.1084 68.0177 57.7995 67.3307 58.679 67.3307H132.436C133.316 67.3307 134.007 68.0177 134.007 68.8922C134.07 69.7666 133.316 70.4536 132.499 70.4536Z" fill="#001447"/>
<path d="M130.74 84.6319H92.6677C91.7881 84.6319 91.097 83.9448 91.097 83.0704C91.097 82.196 91.7881 81.5089 92.6677 81.5089H130.74C131.62 81.5089 132.311 82.196 132.311 83.0704C132.311 83.9448 131.62 84.6319 130.74 84.6319Z" fill="#001447"/>
</svg>